<svg id="圖層_1" data-name="圖層 1" xmlns="http://www.w3.org/2000/svg" viewBox="0 0 438.47 250.79"><defs><style>.cls-1{fill:#ffffff;}.cls-2{fill:#ffffff;}</style></defs><path class="cls-1" d="M318.71,116.5a3.33,3.33,0,0,1-1.07.15c-2.53-.09-6.08-.16-11-.16-26.17,0-49.62,7.94-55.39,25.92-5.72,17.82,8.34,26.65,30.71,26.67,12.24,0,24.76-1.51,41.8-7.27a.81.81,0,0,0,.64-.68A57.85,57.85,0,0,1,326.6,153l12.14-37.84c.12-.36.22-.72.33-1.09C332.29,115,325.48,115.49,318.71,116.5Zm-2.35,15.12-7.39,23a68.75,68.75,0,0,1-20.13,2.87c-18.58,0-22.72-7.48-20.28-15.12,3.05-9.5,14.77-15.09,35.24-15.07,4.4,0,7.93.17,10.63.38C316.18,127.87,317,129.57,316.36,131.62Z"/><path class="cls-1" d="M275.57,100.85A80.47,80.47,0,0,1,304,95.78c18.08,0,19.9,9,18.95,14.72,5.78-.68,11.59-1.13,17.35-2,2-14.43-6-25.24-29.53-25.25a98.61,98.61,0,0,0-31.6,5.06,2.36,2.36,0,0,0-1.49,1.36L274.36,100C274.09,100.85,274.88,101,275.57,100.85Z"/><path class="cls-1" d="M118.8,114.06c-6.77.93-13.58,1.43-20.35,2.44a3.33,3.33,0,0,1-1.07.15c-2.53-.09-6.08-.16-11-.16-26.16,0-49.62,7.94-55.38,25.92-5.72,17.82,8.34,26.65,30.71,26.67,12.24,0,24.76-1.51,41.8-7.27a.82.82,0,0,0,.64-.68,57.85,57.85,0,0,1,2.19-8.14l12.14-37.84C118.59,114.79,118.7,114.43,118.8,114.06ZM96.1,131.62l-7.4,23a68.66,68.66,0,0,1-20.13,2.87c-18.57,0-22.72-7.48-20.27-15.12,3.05-9.5,14.76-15.09,35.24-15.07,4.4,0,7.93.17,10.63.38C95.92,127.87,96.75,129.57,96.1,131.62Z"/><path class="cls-1" d="M55.3,100.85a80.52,80.52,0,0,1,28.44-5.07c18.07,0,19.9,9,19,14.72,5.78-.68,11.59-1.13,17.35-2,2-14.43-6-25.24-29.53-25.25a98.52,98.52,0,0,0-31.6,5.06c-.74.34-1.28.68-1.49,1.36L54.1,100C53.83,100.85,54.62,101,55.3,100.85Z"/><path class="cls-2" d="M192.57,98.72c.93,1.17,1.87,2.65,2.8,4"/><path class="cls-1" d="M192.57,98.72c-4.42-1.16-11.24-2-20.14-2-23,0-39.29,9.06-43.19,19.35s2.79,16,21.83,21.4c13.1,3.84,16.55,7,14.55,12.26s-10.07,9.3-23.58,9.32c-6.59,0-17.69-2.84-23.69-4.25-1.79.77-3.57,1.81-5.36,2.43l-2.44,6.44c-.27.71,15.67,5.4,27.28,5.39,21.95,0,40.54-7.35,45.53-20.5,3.84-10.14-2.59-16-21.79-21.54-14.2-4.26-16.86-7.26-15.23-11.55s8-8.87,21.93-8.89c8.86,0,17.92,1.69,22.91,4.12.6.28,3-4.66,4.19-8C194.44,101.37,193.5,99.89,192.57,98.72Z"/><path class="cls-1" d="M199.59,100.83a.83.83,0,0,0-.09.16l-2.73,8.22c-.24.72-.12,1,1.09,1.06l14.33-.89-14,42.23c-4.6,13.83,3,18.3,18.38,17.34A65.14,65.14,0,0,0,233,166a2.31,2.31,0,0,0,1.74-1.52l2.44-7.35c.24-.72-.39-.68-1.07-.5a47.37,47.37,0,0,1-10.29,1.77c-9.27.58-11.61-2.94-9.4-9.57l13.46-40.5,22.34-1.39c.84,0,1.36-.37,1.55-1l2.5-7.52-1.83-1.83L233.35,97.9c2.34-7.06,5.75-15.46,8.06-20.54.2-.58-.18-.7-1.07-.5l-14.86,2.48a2.61,2.61,0,0,0-1.81,1.1c-1.9,3.22-6,13.22-8,18.56l-13.4.84"/><path class="cls-1" d="M380,76.72h0a10.15,10.15,0,0,1,4.84,1.63c4.33,2.69,6.19,5.07,6.62,8.51a14.83,14.83,0,0,1-2.12,9.23c-3.14,5.52-6.46,11.1-9.68,16.48-.68,1.16-1.37,2.31-2.06,3.47L357.29,104l.2-.33c1.24-2.1,2.48-4.22,3.71-6.33C364,92.46,367,87.45,370,82.64c1.93-3.11,5.78-6.15,10-5.92Zm.22-4.14c-6-.33-11.16,3.71-13.75,7.87-4.32,6.93-8.36,14-12.51,21.06-.77,1.3-1.52,2.6-2.29,3.9l27.27,16.25a6.89,6.89,0,0,0,.51-.6c4.51-7.63,9.11-15.22,13.49-22.93a18.88,18.88,0,0,0,2.64-11.79c-.7-5.52-4.18-8.8-8.56-11.52a14.23,14.23,0,0,0-6.8-2.24Z"/><path class="cls-1" d="M378.81,126.6c-.51,8.64-.82,17.28-1.5,25.9-.42,5.4-2.13,10.37-6.56,13.78-3.23,2.48-6.93,3-10.73,2.75a1.23,1.23,0,0,1-.27,0,18.25,18.25,0,0,1-4-.66c-6.1-1.7-10.53-8.21-10.26-15.6.35-9.65,1-19.29,1.51-28.93,0-.18.1-.33.19-.74l10.77.58c4.07.23,8.13.47,12.2.68,2.32.13,4.63.25,7,.35h.06C378.44,124.77,378.88,125.23,378.81,126.6Z"/><path class="cls-1" d="M354.23,68.45c0-2.2-1.47-4.24-2.83-5.85a32.28,32.28,0,0,0-6.95-6,35,35,0,0,0-7.28-3.66,12.47,12.47,0,0,0-6.33-.85,4.4,4.4,0,0,0-2.78,1.71l-.11.11q-2.46,3.75-4.91,7.48a5.72,5.72,0,0,0-1.4,3c0,2,1.65,3.91,2.94,5.32a43.79,43.79,0,0,0,14.08,9.68c2,.87,4.34,1.84,6.57,1.57a3.87,3.87,0,0,0,2.94-2q2.5-3.86,5.06-7.68A3.76,3.76,0,0,0,354.23,68.45Zm-6.68-5.19a15.08,15.08,0,0,1,3.25,4.24,3.44,3.44,0,0,1,.39,1.28,1.23,1.23,0,0,1,0,.28l-.06,0a1.62,1.62,0,0,0-.28.15,2.72,2.72,0,0,1-.58.13l-.45,0A10.65,10.65,0,0,1,347,69l-.34-.09-.56-.19c-.43-.14-.86-.27-1.27-.44l-.9-.38-.91-.41-1.15-.58-.38-.21-1.34-.77c1.25-1.9,2.51-3.8,3.75-5.7A34,34,0,0,1,347.55,63.26Zm-12.47-7.57a27.92,27.92,0,0,1,6.39,2.89l-3.75,5.69a29.78,29.78,0,0,1-4.17-3.49l-.41-.43c-.38-.42-.76-.84-1.1-1.29a11.58,11.58,0,0,1-1.3-2.09,2.24,2.24,0,0,0-.13-.27,3.64,3.64,0,0,1-.19-.72,1.52,1.52,0,0,1,0-.46l0,0c0-.08.07-.14.39-.24A7.66,7.66,0,0,1,335.08,55.69Zm11.17,20.86c-.27.4-.58.81-.81,1.22,0,0,0,.06,0,.07-.42-.13-1.08,0-1.57-.15a17.41,17.41,0,0,1-2.69-.81,40.26,40.26,0,0,1-13.84-9.12,10.75,10.75,0,0,1-2.64-3.57.07.07,0,0,0,0,0c.29-.4.56-.83.83-1.25.87-1.31,1.73-2.63,2.59-3.94a17.11,17.11,0,0,0,2.72,3.74c.24.26.5.51.75.77s.36.38.55.56a34.81,34.81,0,0,0,7.68,5.53l.17.1c.41.21.82.42,1.23.61a27.46,27.46,0,0,0,3.48,1.44c.31.1.64.2,1,.29s.6.2.91.27a13.33,13.33,0,0,0,2.27.31C348,73.89,347.12,75.23,346.25,76.55Z"/></svg>
